<svg
 
  xmlns="http://www.w3.org/2000/svg"
  width="24"
  height="24"
  viewBox="0 0 24 24"
  fill="none"
  stroke="#4F46E5"
  stroke-width="2"
  stroke-linecap="round"
  stroke-linejoin="round"
>
  <rect x="1.5" y="1.5" width="21" height="21" rx="5" fill="#E0E7FF" stroke="none" />
  <path d="M6 18h8" />
  <path d="M3 22h18" />
  <path d="M14 22a7 7 0 1 0 0-14h-1" />
  <path d="M9 14h2" />
  <path d="M9 12a2 2 0 0 1-2-2V6h6v4a2 2 0 0 1-2 2Z" />
  <path d="M12 6V3a1 1 0 0 0-1-1H9a1 1 0 0 0-1 1v3" />
</svg>
