<svg xmlns="http://www.w3.org/2000/svg" viewBox="0 0 200 200" fill="none">
  <defs>
    <linearGradient id="grad1" x1="0%" y1="0%" x2="100%" y2="100%">
      <stop offset="0%" style="stop-color:#6A1B9A;stop-opacity:1" />
      <stop offset="100%" style="stop-color:#9C27B0;stop-opacity:1" />
    </linearGradient>
    <linearGradient id="grad2" x1="0%" y1="0%" x2="100%" y2="100%">
      <stop offset="0%" style="stop-color:#E1BEE7;stop-opacity:1" />
      <stop offset="100%" style="stop-color:#F3E5F5;stop-opacity:1" />
    </linearGradient>
  </defs>
  
  <!-- Background circle -->
  <circle cx="100" cy="100" r="95" fill="url(#grad2)" stroke="url(#grad1)" stroke-width="2"/>
  
  <!-- Question mark shape -->
  <path d="M 75 60 Q 75 45 90 45 Q 105 45 105 60 Q 105 75 90 85 L 90 95" 
        stroke="url(#grad1)" stroke-width="8" stroke-linecap="round" fill="none"/>
  
  <!-- Dot of question mark -->
  <circle cx="90" cy="110" r="6" fill="url(#grad1)"/>
  
  <!-- Brain/thinking elements -->
  <circle cx="130" cy="70" r="3" fill="url(#grad1)" opacity="0.6"/>
  <circle cx="140" cy="85" r="2" fill="url(#grad1)" opacity="0.4"/>
  <circle cx="125" cy="95" r="2.5" fill="url(#grad1)" opacity="0.5"/>
  
  <!-- Quiz elements (small circles representing multiple choice) -->
  <circle cx="60" cy="140" r="4" fill="none" stroke="url(#grad1)" stroke-width="2"/>
  <circle cx="80" cy="140" r="4" fill="url(#grad1)"/>
  <circle cx="100" cy="140" r="4" fill="none" stroke="url(#grad1)" stroke-width="2"/>
  <circle cx="120" cy="140" r="4" fill="none" stroke="url(#grad1)" stroke-width="2"/>
  
  <!-- Decorative sparkles -->
  <g opacity="0.7">
    <path d="M 40 40 L 42 46 L 48 44 L 42 50 L 40 56 L 38 50 L 32 52 L 38 46 Z" fill="url(#grad1)"/>
    <path d="M 160 30 L 161 34 L 165 33 L 161 37 L 160 41 L 159 37 L 155 38 L 159 34 Z" fill="url(#grad1)"/>
    <path d="M 170 160 L 171.5 165 L 176.5 164 L 171.5 168 L 170 173 L 168.5 168 L 163.5 169 L 168.5 165 Z" fill="url(#grad1)"/>
  </g>
</svg>